<?xml version="1.0" standalone="no"?>
<!DOCTYPE svg PUBLIC "-//W3C//DTD SVG 20010904//EN"
 "http://www.w3.org/TR/2001/REC-SVG-20010904/DTD/svg10.dtd">
<svg version="1.0" xmlns="http://www.w3.org/2000/svg"
 width="256.000000pt" height="256.000000pt" viewBox="0 0 256.000000 256.000000"
 preserveAspectRatio="xMidYMid meet">

<g transform="translate(0.000000,256.000000) scale(0.100000,-0.100000)"
fill="#ffffff" stroke="none">
<path d="M1988 2322 c11 -8 10 -17 -7 -51 -12 -22 -17 -41 -13 -41 5 0 17 18
27 40 18 40 29 47 52 32 9 -6 6 -17 -12 -44 -26 -39 -30 -48 -17 -48 4 0 17
18 30 40 24 43 28 45 52 30 16 -10 15 -11 -28 -77 -8 -13 -10 -23 -4 -23 5 0
21 18 36 40 29 44 37 48 56 25 9 -11 6 -21 -16 -50 -15 -19 -24 -38 -21 -41 3
-3 17 11 32 30 15 20 33 36 41 36 26 0 25 -21 -5 -57 -17 -20 -28 -39 -25 -42
3 -3 21 12 40 34 31 37 35 39 49 24 15 -15 14 -19 -15 -53 -18 -20 -30 -40
-26 -44 4 -3 23 11 42 33 18 22 31 31 27 21 -3 -11 -15 -28 -25 -38 -23 -23
-23 -30 1 -57 l20 -23 36 41 c21 23 43 41 49 41 7 0 30 15 52 34 38 34 39 35
24 62 -8 15 -23 28 -33 30 -23 3 -90 -63 -81 -79 4 -7 -8 2 -27 19 -49 45
-120 91 -192 124 -61 29 -146 52 -119 32z"/>
<path d="M824 2295 c3 -8 1 -14 -3 -12 -10 2 -81 -73 -81 -86 0 -7 -37 -61
-61 -91 -11 -13 -72 28 -92 63 l-18 31 -177 -1 c-97 0 -171 -3 -164 -6 8 -3
10 -9 4 -16 -22 -27 -31 -126 -32 -350 l0 -238 252 6 c139 3 268 8 287 11 32
5 33 7 27 42 -3 20 -6 80 -6 133 l0 96 -25 -5 c-20 -3 -25 0 -25 17 0 16 6 21
25 21 25 0 25 0 25 94 l0 94 35 21 c61 35 87 100 69 169 -4 13 -14 22 -26 22
-14 0 -18 -5 -14 -15z m-449 -350 c0 -35 -31 -47 -51 -20 -18 25 0 57 29 53
17 -2 22 -10 22 -33z m243 23 c16 -16 15 -23 -4 -42 -12 -12 -20 -13 -35 -6
-10 6 -19 16 -19 23 0 16 20 37 35 37 6 0 16 -5 23 -12z m-174 -78 c17 -6 35
-6 53 1 16 6 30 6 36 0 15 -15 -50 -44 -82 -36 -32 8 -53 24 -45 36 7 11 7 11
38 -1z"/>
<path d="M1200 2175 c-91 -12 -174 -24 -184 -26 -16 -3 -20 -13 -21 -47 -1
-32 3 -42 14 -42 43 0 407 43 414 49 4 4 4 25 -1 47 -10 49 -8 49 -222 19z"/>
<path d="M1010 1907 c0 -42 3 -47 23 -48 12 0 33 -2 47 -4 14 -1 84 -4 155 -6
l130 -4 3 48 3 47 -74 0 c-41 0 -122 3 -180 7 l-107 6 0 -46z"/>
<path d="M1875 1919 c-4 -6 -5 -12 -2 -15 2 -3 7 2 10 11 7 17 1 20 -8 4z"/>
<path d="M892 1899 c-7 -11 -18 -17 -24 -13 -7 5 -8 3 -4 -5 5 -7 0 -21 -10
-32 -11 -13 -14 -23 -8 -29 6 -6 23 6 47 34 28 34 34 46 24 55 -9 7 -16 5 -25
-10z"/>
<path d="M1661 1894 c-26 -34 -35 -64 -23 -76 7 -7 19 6 36 40 14 28 26 54 26
57 0 13 -21 3 -39 -21z"/>
<path d="M1995 1899 c-4 -6 -5 -12 -2 -15 2 -3 7 2 10 11 7 17 1 20 -8 4z"/>
<path d="M2046 1893 c-6 -14 -5 -15 5 -6 7 7 10 15 7 18 -3 3 -9 -2 -12 -12z"/>
<path d="M2112 1829 c-19 -17 -40 -28 -48 -25 -8 3 -14 2 -14 -3 0 -11 -50
-32 -60 -26 -5 3 -11 1 -14 -4 -4 -5 6 -8 21 -6 32 3 50 -4 34 -15 -7 -3 -14
-20 -17 -35 -3 -16 -10 -35 -16 -42 -6 -8 -8 -16 -4 -20 3 -4 12 2 20 12 16
23 46 13 46 -15 0 -17 6 -20 45 -20 l45 0 0 115 c0 63 -1 115 -2 115 -2 0 -18
-14 -36 -31z m-42 -49 c0 -5 -7 -10 -16 -10 -8 0 -12 5 -9 10 3 6 10 10 16 10
5 0 9 -4 9 -10z m-5 -58 c-3 -3 -11 0 -18 7 -9 10 -8 11 6 5 10 -3 15 -9 12
-12z m-15 -22 c-8 -5 -19 -10 -25 -10 -5 0 -3 5 5 10 8 5 20 10 25 10 6 0 3
-5 -5 -10z"/>
<path d="M1495 1721 c-3 -5 49 -55 115 -111 115 -97 132 -120 89 -120 -11 0
-19 -7 -19 -16 0 -14 7 -15 38 -10 20 3 45 6 55 6 14 0 17 10 17 60 0 45 -3
60 -14 60 -9 0 -16 -12 -18 -31 l-3 -30 -120 100 c-66 55 -123 100 -127 101
-4 0 -9 -4 -13 -9z"/>
<path d="M1835 1670 c-3 -6 1 -7 9 -4 18 7 21 14 7 14 -6 0 -13 -4 -16 -10z"/>
<path d="M1087 1480 l-108 -160 -42 6 c-206 29 -207 31 -90 68 37 12 68 27 70
33 6 18 -37 23 -229 23 l-188 0 -1 -32 c-1 -18 0 -45 1 -60 1 -16 -3 -28 -9
-28 -6 0 -15 -19 -21 -42 -6 -24 -14 -50 -17 -58 -10 -25 -22 57 -23 160 -1
63 -4 88 -10 75 -12 -29 -12 -135 1 -237 7 -49 10 -91 7 -93 -3 -3 -32 -8 -66
-11 -34 -4 -62 -11 -62 -16 0 -6 30 -7 75 -3 53 5 75 4 75 -4 0 -15 23 -14 84
3 28 8 87 22 131 31 85 17 131 42 199 107 53 51 97 52 63 3 -8 -11 -22 -32
-31 -46 l-17 -27 51 -37 c28 -21 52 -36 53 -34 2 2 15 23 30 47 30 47 79 82
115 82 12 0 45 -11 72 -25 99 -50 159 -27 220 85 32 59 40 64 14 9 -32 -70
-60 -113 -86 -132 -36 -27 -95 -24 -155 7 -26 14 -55 26 -65 26 -33 0 -108
-82 -108 -119 0 -8 213 -161 225 -161 3 0 5 12 5 26 0 19 5 25 18 22 12 -2 18
-15 20 -43 2 -29 9 -45 25 -54 12 -8 32 -20 44 -28 21 -14 26 -9 173 212 83
125 149 232 148 237 -2 5 -39 36 -83 67 -73 52 -80 60 -83 95 -4 42 -23 45
-33 5 -13 -54 -21 -68 -35 -62 -13 5 -12 9 1 30 9 14 15 26 13 27 -2 1 -48 33
-103 71 -55 38 -114 79 -131 92 l-30 22 -107 -159z"/>
<path d="M1048 1624 c-5 -4 -8 -16 -8 -26 0 -10 -4 -18 -10 -18 -14 0 -12 -36
3 -48 17 -14 99 52 90 73 -4 12 -10 11 -33 -5 l-29 -20 -3 26 c-2 14 -6 22
-10 18z"/>
<path d="M2313 1503 c-7 -12 -13 -29 -13 -37 0 -9 -4 -16 -10 -16 -5 0 -10 6
-10 13 0 8 -3 8 -9 -2 -9 -13 -8 -22 1 -61 2 -10 -3 -14 -16 -12 -11 2 -16 -1
-13 -10 2 -7 9 -12 14 -11 15 3 9 -68 -7 -81 -9 -6 -16 -31 -17 -58 -1 -26 -7
-56 -12 -67 -8 -14 -8 -21 2 -24 6 -2 -14 -5 -46 -5 -33 -1 -63 -5 -69 -8 -5
-4 -21 0 -34 7 -22 11 -27 10 -47 -10 l-22 -22 20 -17 c18 -14 19 -23 12 -53
-7 -32 -2 -51 39 -148 26 -61 51 -111 55 -111 31 0 218 84 271 122 27 19 28
20 12 51 -9 18 -31 52 -48 77 l-31 45 -5 230 c-4 191 -7 226 -17 208z m-132
-440 c13 -17 13 -17 -6 -3 -11 8 -22 16 -24 17 -2 2 0 3 6 3 6 0 17 -8 24 -17z
m-36 -91 c-7 -7 -55 27 -55 39 0 5 13 0 30 -12 16 -13 28 -25 25 -27z"/>
<path d="M1616 1050 c-20 -18 -36 -36 -36 -41 0 -19 67 -82 79 -75 9 6 7 14
-10 32 l-22 24 81 0 c66 0 82 3 82 15 0 12 -16 15 -80 15 -44 0 -80 3 -80 7 0
3 7 15 17 25 29 32 6 30 -31 -2z"/>
<path d="M952 843 c-7 -32 -16 -67 -19 -78 -6 -18 -7 -18 -14 5 -5 19 -7 12
-8 -26 -1 -47 -3 -52 -27 -58 -22 -6 -24 -9 -12 -23 9 -12 9 -15 0 -9 -15 9
-33 -33 -25 -62 2 -11 -3 -34 -11 -51 l-17 -31 36 0 36 0 -3 -57 -3 -57 -46 2
c-53 4 -56 1 -68 -62 -6 -32 -5 -49 3 -55 7 -6 56 -8 121 -4 l108 6 -6 180
c-4 99 -7 238 -7 309 0 97 -3 128 -13 128 -7 0 -18 -24 -25 -57z"/>
<path d="M2400 850 c0 -5 5 -10 10 -10 6 0 10 5 10 10 0 6 -4 10 -10 10 -5 0
-10 -4 -10 -10z"/>
<path d="M1273 815 c-7 -8 -13 -24 -13 -36 0 -12 -8 -28 -17 -34 -17 -12 -17
-14 1 -34 26 -28 37 -27 67 12 39 50 43 58 29 67 -8 5 -20 0 -31 -13 l-18 -22
-2 25 c-1 14 -1 31 0 38 2 15 -1 15 -16 -3z"/>
<path d="M2416 817 c-16 -12 -16 -14 -3 -14 9 0 18 6 21 14 3 7 4 13 3 13 -2
0 -11 -6 -21 -13z"/>
<path d="M1581 690 c-5 -16 -7 -30 -4 -30 3 0 0 -6 -6 -13 -6 -8 -8 -17 -4
-21 4 -3 -7 -12 -24 -18 -33 -12 -41 -43 -14 -53 11 -5 10 -8 -5 -20 -10 -8
-14 -15 -9 -15 6 0 -1 -7 -14 -14 -23 -13 -22 -13 37 -53 34 -23 58 -44 55
-47 -4 -3 -27 -6 -52 -7 -25 0 -40 -3 -33 -6 16 -6 -3 -33 -23 -33 -23 0 -22
-24 2 -43 20 -16 21 -21 11 -40 -20 -36 -19 -48 3 -36 11 5 17 14 14 20 -9 13
9 11 23 -3 9 -9 12 -7 12 11 0 12 -4 19 -10 16 -5 -3 -10 1 -10 9 0 9 5 16 10
16 6 0 10 9 10 20 0 11 5 20 10 20 6 0 10 -6 10 -14 0 -11 6 -11 33 3 l32 15
-3 131 c-2 71 -8 132 -13 133 -5 2 -9 11 -9 20 0 15 2 15 10 2 7 -11 10 -3 10
28 0 26 -4 41 -10 37 -5 -3 -10 -1 -10 4 0 22 -18 10 -29 -19z m3 -308 c2 -4
-4 -9 -15 -9 -10 -1 -19 2 -19 8 0 11 27 12 34 1z"/>
<path d="M1480 629 c0 -5 5 -7 10 -4 6 3 10 8 10 11 0 2 -4 4 -10 4 -5 0 -10
-5 -10 -11z"/>
<path d="M1517 633 c-4 -3 -7 -11 -7 -17 0 -6 5 -5 12 2 6 6 9 14 7 17 -3 3
-9 2 -12 -2z"/>
<path d="M2035 624 c-11 -8 -30 -12 -41 -10 -16 4 -28 -3 -48 -29 -19 -24 -37
-36 -64 -41 -20 -3 -42 -13 -49 -21 -6 -8 -14 -14 -17 -14 -20 3 -25 -2 -35
-29 -5 -16 -15 -30 -21 -30 -6 0 -8 -5 -5 -10 4 -6 11 -7 17 -4 7 4 8 2 4 -4
-4 -7 -14 -12 -22 -12 -8 0 -14 -5 -14 -11 0 -5 -5 -7 -10 -4 -6 4 -8 11 -5
16 4 5 2 9 -3 9 -15 0 -24 -33 -11 -41 8 -4 6 -10 -5 -16 -16 -9 -16 -10 0
-24 15 -12 18 -11 28 6 31 54 59 71 131 78 127 12 205 74 205 163 0 48 -5 51
-35 28z"/>
<path d="M780 623 c-8 -3 -26 -17 -40 -31 l-25 -25 31 21 c17 12 34 19 36 16
3 -3 8 2 11 11 4 8 5 15 4 14 -1 0 -9 -3 -17 -6z"/>
<path d="M809 613 c-13 -16 -12 -17 4 -4 9 7 17 15 17 17 0 8 -8 3 -21 -13z"/>
<path d="M1473 573 c1 -18 7 -33 14 -33 8 0 12 12 10 33 -1 19 -8 34 -14 34
-8 0 -12 -13 -10 -34z"/>
<path d="M777 558 c-18 -18 -24 -25 -12 -15 12 9 28 17 36 17 9 0 16 7 16 15
0 21 -3 20 -40 -17z"/>
<path d="M689 553 c-13 -16 -12 -17 4 -4 16 13 21 21 13 21 -2 0 -10 -8 -17
-17z"/>
<path d="M564 544 c-18 -14 -18 -15 4 -4 12 6 22 13 22 15 0 8 -5 6 -26 -11z"/>
<path d="M629 503 c-13 -16 -12 -17 4 -4 16 13 21 21 13 21 -2 0 -10 -8 -17
-17z"/>
<path d="M680 475 c-24 -25 -42 -45 -39 -45 3 0 25 20 49 45 24 25 42 45 39
45 -3 0 -25 -20 -49 -45z"/>
<path d="M120 451 c-98 -18 -94 -9 -59 -140 23 -87 56 -162 104 -237 33 -51
36 -53 62 -43 42 15 145 68 167 84 18 13 18 15 -2 43 -34 47 -109 207 -123
262 -15 58 -12 57 -149 31z"/>
<path d="M1650 319 c0 -13 -38 -49 -52 -49 -12 0 -38 -63 -38 -90 0 -18 5 -21
38 -18 31 2 38 7 40 27 2 14 15 33 28 44 26 20 32 65 12 85 -15 15 -28 15 -28
1z"/>
<path d="M726 251 c-4 -5 3 -7 14 -4 23 6 26 13 6 13 -8 0 -17 -4 -20 -9z"/>
<path d="M2176 244 c-8 -20 0 -32 14 -18 5 5 5 15 1 22 -6 11 -10 10 -15 -4z"/>
<path d="M2207 207 c-8 -22 59 -108 78 -101 18 7 10 22 -38 78 -26 30 -35 35
-40 23z"/>
</g>
</svg>
