<?xml version="1.0" standalone="no"?>
<!DOCTYPE svg PUBLIC "-//W3C//DTD SVG 20010904//EN"
 "http://www.w3.org/TR/2001/REC-SVG-20010904/DTD/svg10.dtd">
<svg version="1.0" xmlns="http://www.w3.org/2000/svg"
 width="256.000000pt" height="256.000000pt" viewBox="0 0 256.000000 256.000000"
 preserveAspectRatio="xMidYMid meet">

<g transform="translate(0.000000,256.000000) scale(0.100000,-0.100000)"
fill="#EE4D47" stroke="none">
<path d="M1045 2053 c-27 -8 -51 -16 -52 -17 -2 -1 7 -29 18 -61 24 -68 21
-94 -22 -205 -33 -84 -40 -180 -14 -180 16 0 45 -85 45 -132 0 -22 -8 -31 -37
-46 -58 -29 -89 -34 -106 -17 -43 42 -81 135 -56 135 25 0 -57 73 -152 135
-99 64 -139 104 -139 136 0 11 -6 19 -14 19 -30 0 -68 -46 -81 -95 l-12 -50
-13 43 c-9 30 -18 42 -29 40 -29 -6 -25 -76 12 -183 l34 -100 81 3 c72 3 82 1
91 -17 14 -25 14 -188 1 -196 -5 -3 -20 10 -31 30 l-22 37 -21 -21 -20 -21 39
-80 c21 -44 42 -80 46 -80 3 0 44 17 90 39 137 63 314 131 341 131 21 0 29 -9
47 -49 11 -27 21 -53 21 -58 0 -4 4 -14 9 -21 6 -10 22 -5 72 24 35 20 72 43
81 52 15 13 27 10 110 -24 51 -21 94 -39 96 -40 1 -1 -17 -59 -41 -130 -53
-156 -120 -411 -113 -430 9 -24 63 -16 147 22 43 21 82 34 85 31 11 -11 22
-91 17 -120 -4 -19 -17 -34 -41 -46 l-36 -18 65 -11 c93 -16 291 -40 390 -48
72 -5 88 -4 102 10 9 10 17 24 17 32 0 8 10 14 23 14 36 0 54 20 71 80 18 62
51 276 62 393 l6 78 -26 -7 c-22 -5 -29 -1 -43 25 -10 17 -31 35 -48 40 -137
43 -404 101 -465 101 -23 0 -51 -9 -74 -25 -41 -28 -43 -24 -17 37 l19 44 -77
29 c-96 35 -183 78 -201 99 -24 30 6 241 76 530 29 122 29 125 4 119 -24 -6
-49 -71 -81 -210 -13 -57 -26 -103 -29 -103 -3 0 -20 41 -39 92 -48 132 -102
258 -110 257 -3 0 -28 -7 -56 -16z m871 -968 c13 -8 24 -21 24 -28 0 -20 -113
-182 -127 -182 -18 0 -173 135 -173 150 0 20 57 57 109 72 55 15 134 10 167
-12z m92 -87 c28 -31 42 -71 42 -124 l0 -44 -37 0 c-58 0 -163 21 -163 33 0
20 113 157 130 157 4 0 16 -10 28 -22z m-292 -86 l89 -78 105 -23 c58 -12 109
-26 113 -30 24 -24 -64 -120 -129 -141 -78 -26 -200 7 -262 71 -38 39 -67 125
-59 175 6 39 36 104 47 104 4 0 48 -35 96 -78z"/>
<path d="M1504 1777 c-102 -74 -102 -72 -56 -191 29 -74 52 -93 71 -57 9 16 6
35 -14 87 -14 37 -23 70 -20 73 4 3 36 29 73 56 43 32 67 58 67 70 0 36 -31
26 -121 -38z"/>
<path d="M1718 1713 c-53 -71 -117 -161 -143 -202 -45 -70 -47 -75 -30 -88 41
-29 58 -17 162 122 33 44 86 118 117 164 l57 83 -22 24 c-12 13 -28 24 -34 24
-7 0 -55 -57 -107 -127z"/>
<path d="M1899 1721 c-22 -18 -22 -18 -6 -78 25 -88 23 -95 -38 -151 -56 -51
-64 -69 -43 -90 20 -20 35 -14 100 44 95 85 93 78 58 188 -17 52 -35 98 -39
101 -5 2 -19 -3 -32 -14z"/>
<path d="M883 1113 c-7 -3 -13 -16 -13 -29 0 -20 -5 -24 -29 -24 -36 0 -48
-25 -19 -41 22 -12 22 -12 -5 -31 -35 -26 -34 -38 3 -38 32 0 36 -9 20 -40
-14 -26 6 -37 29 -16 25 23 38 20 45 -9 9 -34 34 -32 38 3 3 24 7 27 35 24 36
-4 54 16 30 33 -23 16 -21 32 3 40 31 10 26 43 -7 47 -24 3 -28 7 -25 30 4 33
-11 43 -38 26 -18 -11 -23 -10 -38 8 -9 12 -23 20 -29 17z m57 -108 c10 -12
10 -18 0 -30 -25 -30 -61 -7 -46 30 3 8 12 15 19 15 8 0 20 -7 27 -15z"/>
<path d="M355 920 c-25 -28 -14 -93 46 -275 64 -192 135 -339 166 -343 46 -7
541 177 550 204 1 5 -5 19 -15 31 l-17 23 -124 -50 c-148 -60 -299 -109 -344
-112 -31 -3 -33 -1 -79 92 -26 52 -74 175 -106 272 -57 172 -60 177 -77 158z"/>
<path d="M739 850 c-12 -33 -30 -38 -49 -15 -13 15 -42 20 -53 9 -3 -3 -1 -17
5 -30 14 -29 -4 -54 -37 -54 -24 0 -35 -16 -27 -37 2 -7 12 -13 22 -13 28 0
33 -16 19 -55 -17 -46 -2 -65 32 -41 32 22 39 20 39 -12 0 -26 15 -52 31 -52
4 0 12 14 18 30 12 34 35 39 51 10 6 -11 20 -20 32 -20 17 0 19 4 14 28 -13
55 -13 57 29 62 51 6 59 32 15 50 -35 15 -37 26 -10 55 17 18 18 24 7 39 -11
15 -17 16 -35 7 -31 -17 -42 -13 -42 13 0 61 -43 79 -61 26z m22 -100 c25 -14
25 -56 -1 -70 -45 -24 -86 44 -42 69 21 13 20 13 43 1z"/>
</g>
</svg>
