<?xml version="1.0" standalone="no"?>
<!DOCTYPE svg PUBLIC "-//W3C//DTD SVG 20010904//EN"
 "http://www.w3.org/TR/2001/REC-SVG-20010904/DTD/svg10.dtd">
<svg version="1.0" xmlns="http://www.w3.org/2000/svg"
 width="64.000000pt" height="64.000000pt" viewBox="0 0 64.000000 64.000000"
 preserveAspectRatio="xMidYMid meet">

<g transform="translate(0.000000,64.000000) scale(0.100000,-0.100000)"
fill="#000000" stroke="none">
<path d="M20 590 c0 -23 4 -30 20 -30 19 0 20 -7 20 -193 0 -175 2 -196 18
-210 16 -15 48 -17 245 -17 192 0 228 2 241 16 13 13 16 46 16 210 0 187 1
194 20 194 16 0 20 7 20 30 l0 30 -300 0 -300 0 0 -30z m580 0 c0 -6 -100 -10
-280 -10 -180 0 -280 4 -280 10 0 6 100 10 280 10 180 0 280 -4 280 -10z m-42
-227 l-3 -198 -235 0 -235 0 -3 198 -2 197 240 0 240 0 -2 -197z"/>
<path d="M440 530 c0 -5 23 -10 50 -10 28 0 50 5 50 10 0 6 -22 10 -50 10 -27
0 -50 -4 -50 -10z"/>
<path d="M100 520 c0 -6 27 -10 60 -10 33 0 60 4 60 10 0 6 -27 10 -60 10 -33
0 -60 -4 -60 -10z"/>
<path d="M440 490 c0 -5 23 -10 50 -10 28 0 50 5 50 10 0 6 -22 10 -50 10 -27
0 -50 -4 -50 -10z"/>
<path d="M100 480 c0 -6 27 -10 60 -10 33 0 60 4 60 10 0 6 -27 10 -60 10 -33
0 -60 -4 -60 -10z"/>
<path d="M280 453 c-24 -9 -52 -36 -61 -60 -7 -20 -16 -23 -64 -23 -30 0 -55
-4 -55 -10 0 -5 24 -10 53 -10 52 0 53 -1 66 -36 14 -38 61 -74 99 -74 13 0
36 7 52 15 18 9 31 11 35 5 8 -13 135 -13 135 0 0 6 -26 10 -59 10 -33 0 -62
4 -65 9 -3 4 0 22 7 40 9 24 9 38 -1 64 -11 28 -10 34 5 45 9 6 38 12 65 12
26 0 48 5 48 10 0 15 -102 11 -124 -5 -16 -12 -22 -12 -47 0 -28 15 -62 18
-89 8z m82 -24 c21 -11 21 -12 3 -25 -24 -18 -13 -29 14 -15 18 10 21 8 27
-14 3 -14 3 -37 0 -51 l-7 -27 -37 36 c-31 30 -45 36 -87 39 l-50 3 32 33 c33
34 68 41 105 21z m-13 -113 c32 -33 33 -34 13 -45 -36 -19 -72 -13 -103 18
-43 43 -39 61 14 61 36 0 49 -6 76 -34z"/>
<path d="M100 440 c0 -5 18 -10 40 -10 22 0 40 5 40 10 0 6 -18 10 -40 10 -22
0 -40 -4 -40 -10z"/>
<path d="M100 400 c0 -5 18 -10 40 -10 22 0 40 5 40 10 0 6 -18 10 -40 10 -22
0 -40 -4 -40 -10z"/>
<path d="M100 320 c0 -5 18 -10 40 -10 22 0 40 5 40 10 0 6 -18 10 -40 10 -22
0 -40 -4 -40 -10z"/>
<path d="M460 300 c0 -5 18 -10 40 -10 22 0 40 5 40 10 0 6 -18 10 -40 10 -22
0 -40 -4 -40 -10z"/>
<path d="M100 230 c0 -5 5 -10 10 -10 6 0 10 5 10 10 0 6 -4 10 -10 10 -5 0
-10 -4 -10 -10z"/>
<path d="M460 220 c0 -5 18 -10 40 -10 22 0 40 5 40 10 0 6 -18 10 -40 10 -22
0 -40 -4 -40 -10z"/>
<path d="M100 190 c0 -5 5 -10 10 -10 6 0 10 5 10 10 0 6 -4 10 -10 10 -5 0
-10 -4 -10 -10z"/>
<path d="M140 190 c0 -5 5 -10 10 -10 6 0 10 5 10 10 0 6 -4 10 -10 10 -5 0
-10 -4 -10 -10z"/>
<path d="M36 104 c-20 -20 -20 -48 0 -68 13 -14 49 -16 241 -16 206 0 231 2
284 21 33 12 59 25 59 29 0 4 -26 17 -59 29 -53 19 -78 21 -284 21 -192 0
-228 -2 -241 -16z m44 -34 c0 -32 -26 -43 -36 -15 -9 21 3 45 21 45 10 0 15
-10 15 -30z m410 20 c0 -6 -72 -10 -195 -10 -123 0 -195 4 -195 10 0 6 72 10
195 10 123 0 195 -4 195 -10z m40 -20 c0 -11 -4 -20 -10 -20 -5 0 -10 9 -10
20 0 11 5 20 10 20 6 0 10 -9 10 -20z m40 0 c0 -5 -4 -10 -10 -10 -5 0 -10 5
-10 10 0 6 5 10 10 10 6 0 10 -4 10 -10z m-80 -20 c0 -6 -72 -10 -195 -10
-123 0 -195 4 -195 10 0 6 72 10 195 10 123 0 195 -4 195 -10z"/>
</g>
</svg>
